<?xml version="1.0" encoding="UTF-8"?>
<svg id="Layer_1" data-name="Layer 1" xmlns="http://www.w3.org/2000/svg" viewBox="0 0 223.22 39.16">
  <defs>
    <style>
      .cls-1 {
        fill: #f2edeb;
        stroke-width: 0px;
      }

      .cls-2 {
        fill: #f2edeb;
      }
    </style>
  </defs>
  <line class="cls-2" y1=".5" x2="223.22" y2=".5"/>
  <path class="cls-1" d="M18.94,2.86l.19,2.62-7.13,12.36s-.08.14-.24.43c-.16.27-.32.61-.48,1.01-.14.4-.22.8-.22,1.2h-.24l-.94-2.09L18.94,2.86ZM2.66,18.25v1.75H0v-.24h.38c.43,0,.82-.13,1.15-.38.34-.27.54-.65.6-1.13h.53ZM3.72,18.63v.12c0,.26.09.5.26.72.19.21.42.31.67.31h.36v.22h-1.46v-1.37h.17ZM4.13,2.86h.22l.84,2.4-1.61,14.74h-1.68L4.13,2.86ZM4.34,2.86l7.85,12.89-1.37,4.73L3.72,8.55l.62-5.69ZM19.15,2.86l2.28,17.14h-3.86l-1.2-11.04,2.57-6.1h.22ZM20.69,18.25h.5c.08.48.29.86.62,1.13.34.26.71.38,1.13.38h.38v.24h-2.64v-1.75ZM17.42,18.63h.17v1.37h-1.46v-.22h.36c.27,0,.5-.1.67-.31.18-.22.26-.46.26-.72v-.12ZM32.04,5.6v14.4h-3.46V5.6h3.46ZM28.66,18.49v1.51h-1.75v-.24h.31c.37,0,.69-.12.96-.36.27-.26.41-.56.41-.91h.07ZM31.99,18.49h.05c.02.35.15.66.41.91.27.24.6.36.98.36h.29v.24h-1.73v-1.51ZM31.99,7.11v-1.51h1.73l-.02.24h-.26c-.38,0-.71.12-.98.36-.26.24-.39.54-.41.91h-.05ZM28.66,7.11h-.07c0-.37-.14-.67-.41-.91-.27-.24-.6-.36-.98-.36h-.29v-.24h1.75v1.51ZM52.53,13.98l.26,3.62c-.3.51-.73.98-1.27,1.39-.54.4-1.21.72-1.99.96-.78.24-1.7.36-2.74.36-1.79-.02-3.34-.32-4.63-.91-1.3-.59-2.3-1.44-3-2.54-.69-1.12-1.03-2.48-1.03-4.08s.34-2.9,1.03-4.01c.69-1.12,1.68-1.98,2.98-2.57,1.3-.61,2.85-.91,4.66-.91,1.09,0,2.1.1,3.02.31.94.21,1.73.47,2.35.79l.02,3.82h-.19c-.4-1.47-1.03-2.5-1.9-3.1-.86-.59-1.89-.89-3.07-.89s-2.14.27-2.93.82c-.77.54-1.35,1.3-1.75,2.28-.38.98-.58,2.12-.58,3.43s.19,2.48.58,3.46c.4.98.98,1.74,1.73,2.28.75.54,1.66.83,2.71.86,1.14,0,2.07-.18,2.81-.53.75-.35,1.34-.92,1.78-1.7.45-.78.77-1.83.96-3.14h.19ZM72.32,5.6v14.4h-3.43V5.6h3.43ZM62.56,5.6v14.4h-3.46V5.6h3.46ZM69.08,12.34v.96h-6.74v-.96h6.74ZM59.17,18.49v1.51h-1.66v-.24h.29c.35,0,.66-.12.91-.36.26-.26.38-.56.38-.91h.07ZM62.51,18.49h.05c.02.35.15.66.41.91.26.24.56.36.91.36h.26v.24h-1.63v-1.51ZM62.51,7.11v-1.51h1.63v.24h-.26c-.35,0-.66.12-.91.36-.26.24-.39.54-.41.91h-.05ZM59.17,7.11h-.07c0-.37-.13-.67-.38-.91-.26-.24-.56-.36-.91-.36h-.29v-.24h1.66v1.51ZM68.94,18.49v1.51h-1.63v-.24h.26c.35,0,.66-.12.91-.36.26-.26.38-.56.38-.91h.07ZM72.25,18.49h.07c.02.35.14.66.38.91.26.24.57.36.94.36h.26v.24h-1.66v-1.51ZM72.28,7.11v-1.51h1.66v.24h-.29c-.37,0-.68.12-.94.36-.24.24-.36.54-.36.91h-.07ZM68.94,7.11h-.07c0-.37-.13-.67-.38-.91-.26-.24-.56-.36-.91-.36h-.26v-.24h1.63v1.51ZM83.46,5.6v14.4h-3.46V5.6h3.46ZM89.08,19.04l.55.96h-6.22v-.96h5.66ZM88.26,12.39v.96h-4.85v-.96h4.85ZM89.34,5.6v.96h-5.93v-.96h5.93ZM90.62,15.58l-.91,4.42h-4.15l.74-.96c.69,0,1.3-.14,1.82-.41.54-.29,1.01-.69,1.39-1.2.38-.53.68-1.14.89-1.85h.22ZM88.26,13.3v2.11h-.24v-.19c0-.53-.17-.97-.5-1.32-.32-.35-.76-.54-1.32-.55v-.05h2.06ZM88.26,10.33v2.11h-2.06v-.05c.56-.02,1-.2,1.32-.55.34-.37.5-.82.5-1.34v-.17h.24ZM89.34,6.51v2.54h-.24v-.22c0-.7-.19-1.26-.58-1.66-.37-.4-.9-.61-1.61-.62v-.05h2.42ZM89.34,5.24v.58l-2.52-.22c.46,0,.95-.04,1.46-.12.51-.1.86-.18,1.06-.24ZM80.06,18.49l.12,1.51h-1.78v-.24h.31c.35,0,.65-.12.89-.36.26-.26.39-.56.41-.91h.05ZM80.06,7.11h-.05c-.02-.37-.15-.67-.41-.91-.24-.24-.54-.36-.89-.36h-.31v-.24h1.78l-.12,1.51ZM99.92,5.6v14.4h-3.46V5.6h3.46ZM105.51,19.04l.58.96h-6.22v-.96h5.64ZM107.09,15.58l-.94,4.42h-4.15l.74-.96c.69,0,1.3-.14,1.82-.41.54-.29,1.01-.69,1.39-1.2.38-.53.68-1.14.89-1.85h.24ZM96.51,18.49l.12,1.51h-1.78v-.24h.31c.35,0,.65-.12.89-.36.26-.26.39-.56.41-.91h.05ZM99.87,7.11v-1.51h1.66v.24h-.29c-.35,0-.66.12-.91.36-.26.24-.39.54-.41.91h-.05ZM96.51,7.11h-.05c-.02-.37-.15-.67-.41-.91-.26-.24-.56-.36-.91-.36h-.29v-.24h1.66v1.51ZM118.31,4.95l7.1,14.93h-4.06l-4.46-10.54,1.42-4.39ZM113.8,18.42c-.18.43-.15.77.07,1.01.22.22.47.34.74.34h.19v.24h-4.8v-.24h.19c.32,0,.66-.1,1.01-.29.35-.21.64-.56.86-1.06h1.73ZM118.31,4.95l.05,2.88-5.21,12.1h-1.78l5.62-12.07c.03-.1.1-.26.22-.5.11-.26.23-.54.36-.84.13-.32.25-.62.36-.89.11-.29.18-.51.19-.67h.19ZM120.4,15.3v.94h-6.12v-.94h6.12ZM120.76,18.42h3.96c.24.5.54.85.89,1.06.35.19.69.29,1.01.29h.19v.24h-7.06v-.24h.19c.27,0,.52-.11.74-.34.22-.24.25-.58.07-1.01ZM131.28,5.26l14.09,12.38.24,2.66-14.06-12.38-.26-2.66ZM131.38,18.54v1.46h-1.78v-.24h.38c.37,0,.68-.11.94-.34.26-.24.38-.54.38-.89h.07ZM134.59,18.54c.02.35.15.65.41.89.26.22.56.34.91.34h.41v.24h-1.78v-1.46h.05ZM131.28,5.26l3.31,3.6v11.14h-3.29v-12c0-.82-.04-1.47-.12-1.97-.08-.51-.12-.77-.12-.77h.22ZM145.59,5.6v11.9c0,.56.02,1.06.05,1.49.05.42.09.74.12.98.05.22.07.34.07.34h-.22l-3.31-3.82V5.6h3.29ZM145.51,7.06v-1.46h1.8v.24h-.41c-.35,0-.66.12-.94.36-.26.22-.38.51-.38.86h-.07ZM142.3,7.06c-.02-.35-.15-.64-.41-.86-.24-.24-.54-.36-.91-.36h-.41v-.24h1.78v1.46h-.05ZM159.49,5.29c.74,0,1.47.05,2.21.14.75.08,1.45.21,2.09.38.66.16,1.21.35,1.66.58v3.82h-.19c-.26-1.02-.64-1.82-1.15-2.4-.5-.58-1.07-.98-1.73-1.22-.66-.24-1.37-.36-2.14-.36-1.12,0-2.06.26-2.83.79-.77.53-1.35,1.3-1.75,2.3-.38.99-.58,2.19-.58,3.6,0,1.33.18,2.47.53,3.43.35.96.87,1.7,1.56,2.23s1.52.79,2.5.79c.51,0,1-.08,1.46-.24.46-.18.87-.42,1.22-.74.35-.34.6-.74.74-1.22l.02-2.88c0-.32-.1-.56-.29-.72-.18-.16-.43-.24-.77-.24h-.34v-.22h6.17v.22h-.31c-.7,0-1.05.32-1.03.96v3.19c-.34.45-.86.89-1.56,1.32s-1.54.79-2.5,1.08c-.96.29-2.01.43-3.14.43-1.6-.02-2.99-.32-4.18-.91-1.18-.61-2.1-1.47-2.76-2.59-.66-1.12-.98-2.46-.98-4.03s.33-2.9.98-4.01c.66-1.12,1.58-1.98,2.78-2.57,1.2-.61,2.63-.91,4.3-.91ZM176.6,5.6v14.4h-3.46V5.6h3.46ZM182.22,19.04l.55.96h-6.22v-.96h5.66ZM181.4,12.39v.96h-4.85v-.96h4.85ZM182.48,5.6v.96h-5.93v-.96h5.93ZM183.76,15.58l-.91,4.42h-4.15l.74-.96c.69,0,1.3-.14,1.82-.41.54-.29,1.01-.69,1.39-1.2.38-.53.68-1.14.89-1.85h.22ZM181.4,13.3v2.11h-.24v-.19c0-.53-.17-.97-.5-1.32-.32-.35-.76-.54-1.32-.55v-.05h2.06ZM181.4,10.33v2.11h-2.06v-.05c.56-.02,1-.2,1.32-.55.34-.37.5-.82.5-1.34v-.17h.24ZM182.48,6.51v2.54h-.24v-.22c0-.7-.19-1.26-.58-1.66-.37-.4-.9-.61-1.61-.62v-.05h2.42ZM182.48,5.24v.58l-2.52-.22c.46,0,.95-.04,1.46-.12.51-.1.86-.18,1.06-.24ZM173.2,18.49l.12,1.51h-1.78v-.24h.31c.35,0,.65-.12.89-.36.26-.26.39-.56.41-.91h.05ZM173.2,7.11h-.05c-.02-.37-.15-.67-.41-.91-.24-.24-.54-.36-.89-.36h-.31v-.24h1.78l-.12,1.51ZM193.06,5.6v14.4h-3.46V5.6h3.46ZM198.65,19.04l.58.96h-6.22v-.96h5.64ZM200.23,15.58l-.94,4.42h-4.15l.74-.96c.69,0,1.3-.14,1.82-.41.54-.29,1.01-.69,1.39-1.2.38-.53.68-1.14.89-1.85h.24ZM189.65,18.49l.12,1.51h-1.78v-.24h.31c.35,0,.65-.12.89-.36.26-.26.39-.56.41-.91h.05ZM193.01,7.11v-1.51h1.66v.24h-.29c-.35,0-.66.12-.91.36-.26.24-.39.54-.41.91h-.05ZM189.65,7.11h-.05c-.02-.37-.15-.67-.41-.91-.26-.24-.56-.36-.91-.36h-.29v-.24h1.66v1.51ZM212.92,5.29c1.28,0,2.44.18,3.48.53,1.04.34,1.94.83,2.69,1.49.75.66,1.33,1.45,1.73,2.38.42.93.62,1.98.62,3.14s-.21,2.19-.62,3.12c-.4.91-.98,1.7-1.73,2.35s-1.65,1.16-2.69,1.51c-1.04.34-2.2.5-3.48.5s-2.42-.17-3.46-.5c-1.04-.35-1.94-.86-2.69-1.51s-1.33-1.44-1.73-2.35c-.4-.93-.6-1.97-.6-3.12s.2-2.22.6-3.14c.4-.93.98-1.72,1.73-2.38.75-.66,1.65-1.15,2.69-1.49,1.04-.35,2.19-.53,3.46-.53ZM212.92,19.38c.98,0,1.82-.26,2.54-.79.74-.54,1.3-1.3,1.68-2.28.4-.98.6-2.14.6-3.48s-.2-2.53-.6-3.5c-.38-.99-.94-1.75-1.68-2.28-.72-.54-1.57-.82-2.54-.82s-1.8.27-2.52.82c-.72.53-1.28,1.29-1.68,2.28-.4.98-.6,2.14-.6,3.5s.2,2.5.6,3.48c.4.98.96,1.74,1.68,2.28.72.53,1.56.79,2.52.79Z"/>
  <line class="cls-2" y1="24.5" x2="223.22" y2="24.5"/>
  <path class="cls-1" d="M96.44,30.6v8.4h-1.8v-8.4h1.8ZM99.61,38.48l.29.52h-3.49v-.52h3.2ZM99.17,34.61v.5h-2.76v-.5h2.76ZM99.76,30.6v.52h-3.35v-.52h3.35ZM100.49,36.54l-.55,2.46h-2.35l.43-.52c.4,0,.75-.08,1.06-.23.3-.16.56-.38.78-.67.22-.3.39-.64.52-1.04h.12ZM99.17,35.09v1.15h-.12v-.1c0-.3-.1-.54-.29-.73-.19-.19-.44-.29-.73-.3v-.02h1.14ZM99.17,33.48v1.15h-1.14v-.02c.3,0,.54-.11.73-.3.19-.2.29-.45.29-.74v-.08h.12ZM99.76,31.08v1.4h-.12v-.14c0-.37-.11-.66-.34-.89-.22-.22-.51-.34-.89-.35v-.02h1.34ZM99.76,30.38v.35l-1.46-.13c.18,0,.36-.01.55-.04.2-.02.38-.05.55-.08.17-.03.29-.06.36-.1ZM94.68,38.12v.88h-.96v-.12h.16c.21,0,.38-.07.53-.22.15-.15.23-.33.24-.54h.04ZM94.68,31.48h-.04c0-.21-.09-.38-.24-.53-.14-.15-.32-.23-.53-.23h-.16v-.12h.96v.88ZM104.94,31.8l4.64,7.19h-2l-4.62-7.19h1.98ZM104.22,38.26c-.1.15-.11.3-.01.43.1.13.23.19.37.19h.13v.12h-2.64v-.12h.14c.22,0,.42-.06.6-.17.18-.12.34-.26.47-.42l.94-.04ZM105.54,35.33l.52.42-2.36,3.24-.91-.02,2.76-3.64ZM107.11,38.27l2.03.04c.1.15.25.29.43.41.19.11.4.17.62.17h.14v.12h-3.72v-.12h.13c.14,0,.26-.06.36-.19.1-.14.1-.28,0-.42ZM105.9,31.79v.12h-.13c-.14,0-.25.07-.35.2-.1.14-.1.27-.01.41l-1.99-.04c-.11-.15-.26-.28-.46-.4-.18-.12-.39-.18-.61-.18h-.14v-.12h3.7ZM109.34,31.8l-2.53,3.71-.4-.62,2-3.08h.92ZM110.09,31.79v.12h-.16c-.22,0-.42.06-.61.17-.18.11-.33.25-.44.41l-.92.04c.09-.14.08-.27-.01-.41-.09-.14-.2-.2-.35-.2h-.13v-.12h2.63ZM114.48,31.8h1.15c.65,0,1.17.09,1.57.26.4.18.7.42.9.72.2.3.31.63.32,1.01.02.47-.08.88-.29,1.24-.2.35-.47.62-.82.8-.34.18-.72.27-1.13.25-.41-.02-.81-.17-1.21-.43v-.11h.12c.09,0,.2-.01.32-.04.13-.03.26-.09.4-.17.14-.08.28-.2.41-.36s.23-.38.3-.65c.02-.1.04-.2.05-.31.02-.12.02-.22.01-.31,0-.44-.14-.79-.4-1.04-.25-.26-.6-.4-1.04-.4h-.56s0-.04-.02-.11c-.02-.08-.04-.16-.06-.24-.02-.08-.02-.12-.02-.12ZM114.61,31.8v7.2h-1.73v-7.2h1.73ZM112.91,38.24l.05.76h-.86v-.12h.14c.18,0,.32-.06.44-.18.13-.13.2-.28.2-.46h.02ZM112.91,32.54h-.02c0-.18-.08-.33-.2-.44-.12-.12-.27-.18-.44-.18h-.16v-.12h.88l-.05.74ZM114.59,38.24h.02c0,.18.07.33.19.46.12.12.27.18.46.18h.14v.12h-.88l.06-.76ZM125.02,31.64c.64,0,1.22.09,1.74.26.52.17.97.42,1.34.74.38.33.66.72.86,1.19.21.46.31.99.31,1.57s-.1,1.1-.31,1.56c-.2.46-.49.85-.86,1.18-.38.33-.82.58-1.34.76-.52.17-1.1.25-1.74.25s-1.21-.08-1.73-.25c-.52-.18-.97-.43-1.34-.76-.38-.33-.66-.72-.86-1.18-.2-.46-.3-.98-.3-1.56s.1-1.11.3-1.57c.2-.46.49-.86.86-1.19s.82-.58,1.34-.74c.52-.18,1.1-.26,1.73-.26ZM125.02,38.69c.49,0,.91-.13,1.27-.4.37-.27.65-.65.84-1.14.2-.49.3-1.07.3-1.74s-.1-1.26-.3-1.75c-.19-.5-.47-.88-.84-1.14-.36-.27-.78-.41-1.27-.41s-.9.14-1.26.41c-.36.26-.64.64-.84,1.14-.2.49-.3,1.07-.3,1.75s.1,1.25.3,1.74.48.87.84,1.14c.36.26.78.4,1.26.4Z"/>
</svg>